# xmcd CD database file
#
# Track frame offsets:
#	150
#	20147
#	37492
#	51909
#	76460
#	92472
#	109684
#	124001
#	153600
#	166436
#	186073
#	213214
#	271303
#	284030
#
# Disc length: 4078 seconds
#
# Revision: 0
# Processed by: cddbd v1.5.2PL0 Copyright (c) Steve Scherf et al.
# Submitted via: CDex 1.70beta2
#
DISCID=cc0fec0e
DTITLE=Various Artist - Maestros De La Salsa Vol 1 CD2
DYEAR=1997
DGENRE=Salsa
TTITLE0=Orquesta Broadway - Isla Del Encanto
TTITLE1=Raphy Leavitt - Payaso
TTITLE2=Fajardo Y Sus Estrellas - Cuba Cubera
TTITLE3=Charlie Palmieri - Buchipluma na'ma
TTITLE4=Machito and Lalo Rodriguez - Despierta Boricua
TTITLE5=Orquesta Sabor De Nacho - La Runidera
TTITLE6=Ismael Rivera - Maquinolandera
TTITLE7=Eddie Palmieri and Lalo Rodriguez - Oyelo Que Te Conviene
TTITLE8=Richy Ray and Bobby Cruz - Sies Chorriao
TTITLE9=Orquesta Agustin Arce - Si Hecho Pa' Palante
TTITLE10=Cheo Feliciano and The Cesta All Stars - No Hace Falta Papel
TTITLE11=Roberto Roena Y Su Apollo Sound - Lamento De Concepcion
TTITLE12=Orquesta Broadway - Termometro
TTITLE13=Orquesta De Mario Ortiz - Palo De Cana Brava
EXTD=YEAR: 1997
EXTT0=
EXTT1=
EXTT2=
EXTT3=
EXTT4=
EXTT5=
EXTT6=
EXTT7=
EXTT8=
EXTT9=
EXTT10=
EXTT11=
EXTT12=
EXTT13=
PLAYORDER=
